<svg width="34" height="34" viewBox="0 0 34 34" fill="none" xmlns="http://www.w3.org/2000/svg">
<path d="M8.55867 16.9404C8.55867 21.5881 12.3324 25.3619 16.9801 25.3619C21.6279 25.3619 25.4016 21.5881 25.4016 16.9404C25.4016 12.2927 21.6279 8.51892 16.9801 8.51892C12.3324 8.51892 8.55867 12.2927 8.55867 16.9404ZM22.8593 16.4637C23.1374 19.7211 20.7539 22.5812 17.4966 22.8593C14.2392 23.1374 11.3791 20.7539 11.101 17.4966C10.8229 14.2392 13.2064 11.379 16.4637 11.101C19.7211 10.7832 22.5812 13.2064 22.8593 16.4637Z" fill="#1D91D2"/>
<path d="M28.5398 21.6278L29.9302 21.5881C30.2479 21.5881 30.6055 21.31 30.6849 20.9922L31.1616 18.7677C31.2013 18.4499 31.0027 18.0527 30.7246 17.9335L29.4535 17.3376C29.1754 17.1787 28.9371 16.8212 28.8973 16.5034C28.8973 16.5034 28.8973 16.3445 28.8576 15.9473C28.8576 15.8281 28.8576 15.8281 28.8576 15.8281C28.8576 15.6692 29.0562 15.4309 29.3343 15.272L30.526 14.5172C30.8041 14.3583 30.963 13.9611 30.8835 13.6433L30.1685 11.4982C30.0493 11.1804 29.6918 10.9818 29.374 10.9818L27.9837 11.101C27.6659 11.1407 27.2686 10.9421 27.1097 10.7037C26.9509 10.4654 26.6728 9.63119 26.8317 9.35312L27.4673 8.12166C27.6262 7.84359 27.5467 7.40664 27.3084 7.1683L25.64 5.65877C25.4016 5.46015 24.9647 5.46016 24.6866 5.61905L23.5346 6.41353C23.2565 6.61215 22.8593 6.65188 22.5812 6.49299C22.3429 6.37381 21.6676 5.77794 21.6278 5.46015L21.5881 4.06981C21.5881 3.75202 21.31 3.39452 20.9923 3.31507L18.7677 2.83837C18.4499 2.79865 18.0527 2.99726 17.9335 3.27533L17.3376 4.5465C17.1788 4.82457 16.8212 5.06292 16.5035 5.10265C16.5035 5.10265 16.3445 5.10264 15.9473 5.14236C15.8281 5.14236 15.8281 5.14236 15.8281 5.14236C15.6692 5.14236 15.4309 4.94374 15.272 4.66567L14.5173 3.47395C14.3584 3.19588 13.9611 3.037 13.6433 3.11645L11.4982 3.83147C11.1804 3.95065 10.9818 4.30816 10.9818 4.62595L11.101 6.01629C11.1407 6.33409 10.9421 6.73133 10.7037 6.89023C10.4654 7.04912 9.6312 7.32719 9.35313 7.1683L8.12169 6.5327C7.84362 6.3738 7.40666 6.45326 7.16831 6.69161L5.6588 8.36002C5.46018 8.59836 5.46017 9.03531 5.61907 9.31338L6.41355 10.4654C6.61217 10.7435 6.6519 11.1407 6.493 11.4187C6.37383 11.6571 5.77797 12.3324 5.46018 12.3721L4.06984 12.4118C3.75204 12.4118 3.39453 12.6899 3.31508 13.0077L2.83839 15.2323C2.79867 15.5501 2.99729 15.9473 3.27536 16.0665L4.54653 16.6623C4.8246 16.8212 5.06294 17.1787 5.10266 17.4965C5.10266 17.4965 5.10266 17.6554 5.14239 18.0527C5.14239 18.1718 5.14239 18.1718 5.14239 18.1718C5.14239 18.3307 4.94376 18.5691 4.6657 18.728L3.47398 19.4827C3.19591 19.6416 3.03701 20.0388 3.11646 20.3566L3.83149 22.5017C3.95066 22.8195 4.30818 23.0182 4.62597 23.0182L6.01631 22.899C6.3341 22.8593 6.73135 23.0579 6.89024 23.2962C7.04914 23.5346 7.32721 24.3688 7.16831 24.6469L6.53273 25.8783C6.37383 26.1564 6.45328 26.5933 6.69162 26.8317L8.36003 28.3412C8.59838 28.5398 9.03534 28.5398 9.31341 28.3809L10.4654 27.5864C10.7435 27.3878 11.1407 27.3481 11.4188 27.507C11.6571 27.6261 12.3324 28.222 12.3721 28.5398L12.4119 29.9301C12.4119 30.2479 12.6899 30.6054 13.0077 30.6849L15.2323 31.1616C15.5501 31.2013 15.9473 31.0027 16.0665 30.7246L16.6623 29.4534C16.8212 29.1754 17.1788 28.937 17.4966 28.8973C17.4966 28.8973 17.6554 28.8973 18.0527 28.8576C18.1719 28.8576 18.1719 28.8576 18.1719 28.8576C18.3307 28.8576 18.5691 29.0562 18.728 29.3343L19.4827 30.526C19.6416 30.8041 20.0389 30.9629 20.3567 30.8835L22.5018 30.1685C22.8196 30.0493 23.0182 29.6918 23.0182 29.374L22.899 27.9837C22.8593 27.6659 23.0579 27.2686 23.2962 27.1097C23.5346 26.9508 24.3688 26.6728 24.6469 26.8317L25.8783 27.4672C26.1564 27.6261 26.5933 27.5467 26.8317 27.3083L28.3412 25.6399C28.5398 25.4016 28.5398 24.9646 28.3809 24.6866L27.5864 23.5346C27.3878 23.2565 27.3481 22.8593 27.507 22.5812C27.6659 22.3031 28.222 21.6278 28.5398 21.6278ZM16.9801 26.5536C11.6968 26.5536 7.36693 22.2237 7.36693 16.9404C7.36693 11.6571 11.6968 7.32718 16.9801 7.32718C22.2634 7.32718 26.5933 11.6571 26.5933 16.9404C26.5933 22.2634 22.3031 26.5536 16.9801 26.5536Z" fill="#1D91D2"/>
</svg>
