<svg width="30" height="30" viewBox="0 0 30 30" fill="none" xmlns="http://www.w3.org/2000/svg">
<path d="M26.5398 19.6278L27.9302 19.5881C28.248 19.5881 28.6055 19.3101 28.6849 18.9923L29.1616 16.7677C29.2013 16.4499 29.0027 16.0527 28.7246 15.9335L27.4535 15.3377C27.1754 15.1788 26.9371 14.8213 26.8973 14.5035C26.8973 14.5035 26.8973 14.3446 26.8576 13.9473C26.8576 13.8281 26.8576 13.8282 26.8576 13.8282C26.8576 13.6693 27.0562 13.4309 27.3343 13.272L28.526 12.5173C28.8041 12.3584 28.963 11.9611 28.8835 11.6433L28.1685 9.49823C28.0493 9.18044 27.6918 8.98182 27.374 8.98182L25.9837 9.10099C25.6659 9.14071 25.2687 8.94209 25.1098 8.70375C24.9509 8.46541 24.6728 7.63122 24.8317 7.35315L25.4673 6.12169C25.6262 5.84362 25.5467 5.40667 25.3084 5.16833L23.64 3.6588C23.4016 3.46018 22.9647 3.46019 22.6866 3.61908L21.5346 4.41356C21.2565 4.61218 20.8593 4.65191 20.5812 4.49302C20.3429 4.37384 19.6676 3.77797 19.6279 3.46018L19.5881 2.06984C19.5881 1.75205 19.3101 1.39455 18.9923 1.3151L16.7677 0.838405C16.4499 0.798681 16.0527 0.997291 15.9335 1.27536L15.3377 2.54653C15.1788 2.8246 14.8213 3.06295 14.5035 3.10268C14.5035 3.10268 14.3446 3.10267 13.9473 3.14239C13.8281 3.14239 13.8282 3.14239 13.8282 3.14239C13.6693 3.14239 13.4309 2.94377 13.272 2.6657L12.5173 1.47398C12.3584 1.19591 11.9611 1.03703 11.6433 1.11648L9.49824 1.8315C9.18045 1.95068 8.98182 2.30819 8.98182 2.62598L9.101 4.01632C9.14073 4.33412 8.94211 4.73136 8.70376 4.89026C8.46542 5.04915 7.63122 5.32723 7.35315 5.16833L6.1217 4.53273C5.84364 4.37383 5.40667 4.45329 5.16833 4.69164L3.65881 6.36005C3.46019 6.59839 3.46019 7.03534 3.61908 7.31341L4.41356 8.46542C4.61218 8.74348 4.65191 9.14071 4.49302 9.41878C4.37385 9.65712 3.77798 10.3324 3.46019 10.3722L2.06985 10.4119C1.75206 10.4119 1.39455 10.6899 1.3151 11.0077L0.838405 13.2323C0.798681 13.5501 0.997303 13.9473 1.27537 14.0665L2.54654 14.6623C2.82461 14.8212 3.06295 15.1788 3.10268 15.4966C3.10268 15.4966 3.10268 15.6554 3.1424 16.0527C3.1424 16.1719 3.1424 16.1719 3.1424 16.1719C3.1424 16.3307 2.94378 16.5691 2.66571 16.728L1.47399 17.4828C1.19592 17.6417 1.03703 18.0389 1.11648 18.3567L1.8315 20.5018C1.95068 20.8196 2.30819 21.0182 2.62598 21.0182L4.01632 20.899C4.33412 20.8593 4.73136 21.0579 4.89026 21.2963C5.04915 21.5346 5.32723 22.3688 5.16833 22.6469L4.53274 23.8783C4.37385 24.1564 4.45329 24.5934 4.69164 24.8317L6.36005 26.3412C6.59839 26.5398 7.03535 26.5398 7.31342 26.3809L8.46542 25.5864C8.74348 25.3878 9.14072 25.3481 9.41879 25.507C9.65713 25.6262 10.3324 26.222 10.3722 26.5398L10.4119 27.9302C10.4119 28.248 10.69 28.6055 11.0077 28.6849L13.2323 29.1616C13.5501 29.2013 13.9473 29.0027 14.0665 28.7246L14.6624 27.4535C14.8213 27.1754 15.1788 26.9371 15.4966 26.8973C15.4966 26.8973 15.6555 26.8973 16.0527 26.8576C16.1719 26.8576 16.1719 26.8576 16.1719 26.8576C16.3308 26.8576 16.5691 27.0562 16.728 27.3343L17.4828 28.526C17.6417 28.8041 18.0389 28.963 18.3567 28.8835L20.5018 28.1685C20.8196 28.0493 21.0182 27.6918 21.0182 27.374L20.899 25.9837C20.8593 25.6659 21.0579 25.2686 21.2963 25.1097C21.5346 24.9509 22.3688 24.6728 22.6469 24.8317L23.8783 25.4673C24.1564 25.6262 24.5934 25.5467 24.8317 25.3084L26.3412 23.64C26.5398 23.4016 26.5398 22.9647 26.3809 22.6866L25.5865 21.5346C25.3878 21.2565 25.3481 20.8593 25.507 20.5812C25.6659 20.3032 26.222 19.6278 26.5398 19.6278ZM14.9801 24.5536C9.69686 24.5536 5.36695 20.2237 5.36695 14.9404C5.36695 9.65713 9.69686 5.32721 14.9801 5.32721C20.2634 5.32721 24.5934 9.65713 24.5934 14.9404C24.5934 20.2634 20.3032 24.5536 14.9801 24.5536Z" fill="#1D91D2"/>
</svg>
