<svg width="34" height="34" viewBox="0 0 34 34" fill="none" xmlns="http://www.w3.org/2000/svg">
<path d="M29.9436 12.2512C29.0733 12.0735 28.2393 12.5712 28.0217 13.4246L26.1723 21.2467L12.3199 21.1045L8.9837 8.02016C8.87491 7.59349 8.5848 7.23795 8.22218 7.02461L5.21236 5.38907C4.45084 4.96241 3.47174 5.24685 3.03659 5.99351C2.60144 6.74017 2.89154 7.70016 3.65306 8.12682L6.08267 9.44237L9.49137 22.7756L7.67823 24.1978C7.46066 24.3756 7.3156 24.6245 7.3156 24.9089V27.1489C7.3156 27.6467 7.7145 28.0378 8.22218 28.0378L10.7968 28.0733C10.4342 28.3933 10.2166 28.8556 10.2166 29.3889C10.2166 30.3844 11.0144 31.1666 12.0298 31.1666C13.0451 31.1666 13.8429 30.3844 13.8429 29.3889C13.8429 28.8911 13.6253 28.4644 13.299 28.1089L25.302 28.2867C25.0481 28.6067 24.9031 28.9622 24.9031 29.3889C24.9031 30.3844 25.7009 31.1666 26.7162 31.1666C27.7316 31.1666 28.5294 30.3844 28.5294 29.3889C28.5294 28.9978 28.3843 28.6422 28.1667 28.3222L29.726 28.3578C30.2337 28.3578 30.6326 27.9667 30.6326 27.4689C30.6326 26.9711 30.2337 26.58 29.726 26.58L9.12875 26.2956V25.3711L10.6518 24.1978C10.7968 24.2334 10.9419 24.2689 11.0869 24.2689L27.4415 24.4111C28.1667 24.4111 28.8195 23.9134 29.0008 23.2023L31.104 14.1357C31.3579 13.2823 30.8139 12.429 29.9436 12.2512Z" fill="#1D91D2"/>
<path fill-rule="evenodd" clip-rule="evenodd" d="M19.2649 2.83334C18.255 2.83334 17.4363 3.65205 17.4363 4.66197V5.70207H14.4818C13.6897 5.70207 13.0475 6.34425 13.0475 7.13643C13.0475 7.9286 13.6897 8.57079 14.4818 8.57079H14.5105V9.28796H14.4818C13.6897 9.28796 13.0475 9.93014 13.0475 10.7223C13.0475 11.5145 13.6897 12.1567 14.4818 12.1567H14.5105V16.4597H14.4818C13.6897 16.4597 13.0475 17.1019 13.0475 17.8941C13.0475 18.6863 13.6897 19.3284 14.4818 19.3284H24.0478C24.84 19.3284 25.4821 18.6863 25.4821 17.8941C25.4821 17.1019 24.84 16.4597 24.0478 16.4597H24.0194V12.1567H24.0478C24.84 12.1567 25.4821 11.5145 25.4821 10.7223C25.4821 9.93014 24.84 9.28796 24.0478 9.28796H24.0194V8.57079H24.0478C24.84 8.57079 25.4821 7.9286 25.4821 7.13643C25.4821 6.34425 24.84 5.70207 24.0478 5.70207H21.0935V4.66197C21.0935 3.65205 20.2748 2.83334 19.2649 2.83334Z" fill="#1D91D2"/>
</svg>
